<?xml version="1.0" encoding="UTF-8"?>
<svg id="Calque_2" data-name="Calque 2" xmlns="http://www.w3.org/2000/svg" viewBox="0 0 304.66 179.22">
  <defs>
    <style>
      .cls-1 {
        fill: #3813f1;
        stroke: #3a00f1;
        stroke-miterlimit: 10;
        stroke-width: .5px;
      }
    </style>
  </defs>
  <g id="Maquette">
    <g>
      <path class="cls-1" d="m53.15,122.29l-1.89,1.32c0,.5-.16,1.51-.47,3.02-.32,1.51-.47,2.52-.47,3.02,0,.12-.16.44-.47.94-.32.5-.6.82-.85.94h-.94c0-.25-.03-.73-.09-1.42-.07-.69-.16-1.42-.28-2.17-.13-.76-.22-1.45-.28-2.08-.06-.63-.09-1.07-.09-1.32-.38-.63-.76-.94-1.13-.94-.13-.13-.5-.19-1.13-.19h-1.98c-.69,0-1.32.03-1.89.09-.57.06-.92.09-1.04.09-.38-.25-1.39-.47-3.02-.66-1.64-.19-2.77-.41-3.4-.66-.25,0-.76-.16-1.51-.47-.76-.31-1.2-.47-1.32-.47-.25,0-.79-.19-1.61-.57-.82-.38-1.67-.82-2.55-1.32-.88-.5-1.73-.97-2.55-1.42-.82-.44-1.35-.72-1.61-.85h-1.13c-.25.25-1.04.69-2.36,1.32-1.32.63-2.24.94-2.74.94h-.76c-.25-.25-.69-.63-1.32-1.13-.63-.5-.95-.88-.95-1.13v-2.83c0-.12.06-.47.19-1.04.12-.57.28-1.13.47-1.7.19-.57.41-1.35.66-2.36v-18.51c-.76-.25-1.51-.63-2.27-1.13-.25,0-.69-.03-1.32-.09-.63-.06-1.36-.16-2.17-.28-.82-.12-1.58-.22-2.27-.28-.69-.06-1.1-.09-1.23-.09-.25,0-.63-.31-1.13-.94-.5-.63-.88-1.07-1.13-1.32v-2.08c.25-.38.63-1.07,1.13-2.08.5-1.01.88-1.63,1.13-1.89.12-.25.53-.72,1.23-1.42.69-.69,1.42-1.42,2.17-2.17.76-.76,1.48-1.45,2.17-2.08.69-.63,1.16-1.07,1.42-1.32v-1.51c-.76-3.9-1.51-7.68-2.27-11.33-.63-3.15-1.32-6.36-2.08-9.64-.76-3.27-1.39-5.98-1.89-8.12,0-.5-.13-1.23-.38-2.17-.25-.94-.38-1.67-.38-2.17,0-.25-.16-.76-.47-1.51-.32-.76-.47-1.26-.47-1.51-.13-.25-.35-.69-.66-1.32-.32-.63-.66-1.26-1.04-1.89-.38-.63-.73-1.23-1.04-1.79-.32-.57-.54-.97-.66-1.23,0-.25-.13-.79-.38-1.61-.25-.82-.38-1.35-.38-1.61v-5.86c0-.25.28-.91.85-1.98.57-1.07.91-1.86,1.04-2.36.25-.12.88-.72,1.89-1.79,1.01-1.07,1.7-1.67,2.08-1.79.5-.5,1.13-1.01,1.89-1.51.75-.5,1.26-.76,1.51-.76h5.1l.38.38c0,.13.12.19.38.19.12,0,.19.06.19.19,0,.25.12.63.38,1.13.25.5.38.88.38,1.13.12.25.34.79.66,1.61.31.82.66,1.7,1.04,2.64.38.95.72,1.79,1.04,2.55.31.76.53,1.13.66,1.13,0,.25.5.92,1.51,1.98,1.01,1.07,1.76,1.86,2.27,2.36.38.25.97.63,1.79,1.13.82.5,1.7,1.1,2.64,1.79.95.69,1.89,1.32,2.83,1.89.94.57,1.61.92,1.98,1.04.25.25.75.57,1.51.95s1.57.79,2.46,1.23c.88.44,1.73.85,2.55,1.23.82.38,1.42.69,1.79.94.63.25,1.95.76,3.97,1.51,2.01.75,3.34,1.26,3.97,1.51.38.25,1.51.6,3.4,1.04,1.89.44,3.21.79,3.97,1.04.38.13,1.01.28,1.89.47.88.19,1.73.41,2.55.66.82.25,1.57.47,2.27.66.69.19,1.1.35,1.23.47.63,0,1.67.16,3.12.47,1.45.32,2.99.63,4.63.95,1.63.32,3.18.6,4.63.85,1.45.25,2.42.44,2.93.57.38,0,.69.13.94.38l.38.38v4.35c0,.25-.16.63-.47,1.13-.32.5-.6.88-.85,1.13-.25.25-.66.69-1.23,1.32-.57.63-1.17,1.26-1.79,1.89-.63.63-1.23,1.2-1.79,1.7-.57.5-.98.82-1.23.95,0,.13-.25.32-.76.57-.5.25-1.07.54-1.7.85-.63.32-1.26.63-1.89.94-.63.32-1.13.47-1.51.47-.25.13-.92.41-1.98.85-1.07.44-2.17.92-3.31,1.42-1.13.5-2.21.94-3.21,1.32-1.01.38-1.58.63-1.7.76-.63.25-1.73.76-3.31,1.51-1.58.76-2.55,1.26-2.93,1.51h4.16c.25,0,.76-.03,1.51-.09.76-.06,1.57-.16,2.46-.28.88-.12,1.7-.22,2.46-.28.76-.06,1.26-.09,1.51-.09.63-.12,1.7-.25,3.21-.38,1.51-.12,3.08-.25,4.72-.38,1.63-.12,3.15-.25,4.53-.38,1.38-.12,2.33-.25,2.83-.38h7.37c.25.13.82.25,1.7.38.88.13,1.82.25,2.83.38,1.01.13,1.98.25,2.93.38.94.13,1.61.25,1.98.38l1.13.38c.76.25,1.32.38,1.7.38.76.5,1.51.88,2.27,1.13.12.25.57.79,1.32,1.61.76.82,1.26,1.35,1.51,1.61.12.38.25.69.38.94,0,.13.03.22.09.28.06.07.09.16.09.28s.06.25.19.38c.25.25.5.92.76,1.98.25,1.07.5,1.73.76,1.98v2.83c-.25.5-.5,1.29-.76,2.36-.25,1.07-.5,1.73-.76,1.98-.13.38-.57,1.39-1.32,3.02-.76,1.64-1.26,2.77-1.51,3.4-.25.25-.63.76-1.13,1.51-.5.75-.88,1.2-1.13,1.32-.25.38-.85,1.04-1.79,1.98-.94.94-1.98,1.95-3.12,3.02-1.13,1.07-2.21,2.11-3.21,3.12l-2.08,2.08c-.13.25-.73.79-1.79,1.61-1.07.82-1.67,1.35-1.79,1.61-.5.13-1.48.57-2.93,1.32-1.45.75-2.36,1.26-2.74,1.51-.25.25-.76.57-1.51.95-.76.38-1.54.75-2.36,1.13-.82.38-1.64.79-2.46,1.23-.82.44-1.35.73-1.61.85-.25.25-1.07.63-2.46,1.13-1.39.5-2.27.88-2.65,1.13-.38.13-1.01.32-1.89.57-.88.25-1.79.54-2.74.85-.95.32-1.83.63-2.65.94-.82.32-1.42.47-1.79.47-.25.75-.5,2.14-.75,4.16-.25,2.01-.38,3.4-.38,4.16,0,.63-.09,2.23-.28,4.82-.19,2.58-.41,5.38-.66,8.41-.25,3.02-.5,5.82-.75,8.41-.25,2.58-.44,4.25-.57,5.01,0,.38-.06.97-.19,1.79-.13.82-.22,1.67-.28,2.55-.07.88-.16,1.7-.28,2.46-.13.76-.19,1.2-.19,1.32,0,.25-.13.76-.38,1.51-.25.75-.38,1.2-.38,1.32,0-.38-.03-1.17-.09-2.36-.06-1.2-.09-2.43-.09-3.68s-.03-2.49-.09-3.68c-.07-1.2-.09-1.98-.09-2.36,0-.76.03-1.79.09-3.12.06-1.32.09-2.64.09-3.97s.03-2.49.09-3.5c.06-1.01.09-1.64.09-1.89s.03-1.13.09-2.64c.06-1.51.16-3.12.28-4.82.12-1.7.22-3.34.28-4.91.06-1.58.09-2.55.09-2.93v-5.1Zm-24.56-58.19c.25.25.47.47.66.66.19.19.41.35.66.47h.94c.38-.12.94-.28,1.7-.47.76-.19,1.13-.41,1.13-.66.5-.12,1.38-.47,2.64-1.04,1.26-.57,2.55-1.2,3.87-1.89,1.32-.69,2.55-1.29,3.68-1.79,1.13-.5,1.89-.88,2.27-1.13.12,0,.28-.19.47-.57.19-.38.41-.69.66-.94l-18.7-5.86h-2.08v3.02c.12.38.28,1.07.47,2.08.19,1.01.38,2.05.57,3.12.19,1.07.38,2.08.57,3.02.19.94.34,1.61.47,1.98Zm26.83,20.4c0,.5-.16,1.23-.47,2.17-.32.94-.6,1.67-.85,2.17,0,.13-.16.44-.47.94-.32.5-.47.82-.47.95-.13.38-.44.44-.94.19l-.76-.38v-6.05h-1.13c-.38.25-1.39.47-3.02.66-1.64.19-2.77.35-3.4.47-.5.13-1.29.28-2.36.47-1.07.19-2.14.41-3.21.66-1.07.25-2.08.47-3.02.66s-1.48.35-1.61.47c-.25,0-.6.09-1.04.28-.44.19-.66.41-.66.66v10.2c.38.38.82.75,1.32,1.13,1.01.76,1.89,1.32,2.64,1.7.38.25.95.63,1.7,1.13.76.5,1.13.88,1.13,1.13.38.13,1.13.44,2.27.94,1.13.5,1.76.82,1.89.95.25,0,.53.06.85.19.31.13.66.25,1.04.38.5.13.94.25,1.32.38h11.33c.76-.12,1.45-.25,2.08-.38.63-.12,1.23-.25,1.79-.38.57-.12.97-.19,1.23-.19.38-.12,1.07-.28,2.08-.47,1.01-.19,1.63-.41,1.89-.66.88-.25,2.08-.6,3.59-1.04,1.51-.44,2.39-.66,2.64-.66.38-.12,1.07-.47,2.08-1.04,1.01-.57,2.01-1.13,3.02-1.7,1.01-.57,2.01-1.07,3.02-1.51,1.01-.44,1.7-.72,2.08-.85,0-.25.53-.75,1.61-1.51,1.07-.76,1.86-1.38,2.36-1.89.12,0,.28-.12.47-.38.19-.25.41-.38.66-.38,0-.25.12-.63.38-1.13.25-.5.38-.88.38-1.13v-3.78c0-.25-.35-.82-1.04-1.7-.69-.88-1.29-1.45-1.79-1.7-.25,0-.76-.12-1.51-.38-.76-.25-1.26-.38-1.51-.38h-22.48c0,.63-.03,1.7-.09,3.21-.06,1.51-.16,3.12-.28,4.82-.13,1.7-.28,3.34-.47,4.91-.19,1.58-.35,2.62-.47,3.12,0,.5-.16,1.29-.47,2.36-.32,1.07-.47,1.73-.47,1.98,0-.25-.03-.72-.09-1.42-.07-.69-.16-1.42-.28-2.17-.13-.76-.22-1.48-.28-2.17-.06-.69-.09-1.23-.09-1.61-.13-.38-.25-1.13-.38-2.27-.13-1.13-.25-2.36-.38-3.68-.13-1.32-.22-2.58-.28-3.78-.06-1.2-.09-2.05-.09-2.55h-.95Zm-6.42-15.3c-.5,0-.76.35-.76,1.04s.25,1.04.76,1.04c.63,0,.94-.34.94-1.04s-.32-1.04-.94-1.04Z"/>
      <path class="cls-1" d="m99.43,9.13c0-.12.03-.28.09-.47.06-.19.09-.34.09-.47s.06-.25.19-.38c.12-.5.6-1.2,1.42-2.08.82-.88,1.29-1.45,1.42-1.7.12,0,.47-.16,1.04-.47.57-.31,1.2-.69,1.89-1.13.69-.44,1.35-.85,1.98-1.23.63-.38,1.13-.63,1.51-.76.25-.12.63-.19,1.13-.19h1.13l1.13.38c.38.13.88.19,1.51.19.5.25.94.44,1.32.57.25.13.57.25.94.38,0,.63.06,1.2.19,1.7.25,1.26.44,2.08.57,2.46,0,.25.03.82.09,1.7.06.88.12,1.83.19,2.83.06,1.01.16,2.02.28,3.02.12,1.01.19,1.77.19,2.27v4.63c0,1.95.03,3.87.09,5.76.06,1.89.12,3.59.19,5.1.06,1.51.16,2.39.28,2.65-.13.5-.25.94-.38,1.32-.25.76-.44,1.32-.57,1.7-.13.25-.19.54-.19.85s-.06.6-.19.85c-.13.38-.25.69-.38.95-.38.25-.76.79-1.13,1.61-.38.82-.69,1.23-.94,1.23-.25.13-.79.44-1.61.95-.82.5-1.7,1.01-2.65,1.51-.94.5-1.86.98-2.74,1.42-.88.44-1.51.73-1.89.85,0,.25-.41.38-1.23.38s-1.42.13-1.79.38l-.38-.19h-.57c-.13-.25-.44-.6-.94-1.04-.5-.44-.69-.79-.57-1.04.12-.12.16-.76.09-1.89-.07-1.13-.09-1.76-.09-1.89-.13-.88-.22-2.23-.28-4.06-.06-1.82-.09-3.71-.09-5.67v-8.6c0-.25-.06-1.01-.19-2.27-.13-1.26-.25-2.61-.38-4.06-.13-1.45-.19-2.8-.19-4.06v-2.27c0-.25.06-.5.19-.76,0-.25.03-.44.09-.57.06-.12.09-.25.09-.38Zm9.64,132.06v-17.38c-.5-.25-1.23-.63-2.17-1.13-.94-.5-1.67-.88-2.17-1.13-.13-.38-.25-.69-.38-.94-.25-.5-.38-.82-.38-.94,0-.25-.16-1.07-.47-2.46-.32-1.38-.47-2.27-.47-2.65-.13-.38-.28-1.01-.47-1.89-.19-.88-.35-1.79-.47-2.74-.13-.94-.22-1.89-.28-2.83-.07-.95-.09-1.61-.09-1.98-.13-1.51-.28-3.62-.47-6.33-.19-2.71-.38-5.48-.57-8.31-.19-2.83-.38-5.38-.57-7.65-.19-2.27-.35-3.59-.47-3.97v-15.3c.25-.5.6-1.29,1.04-2.36.44-1.07.79-1.73,1.04-1.98l1.98-1.98c1.07-1.07,1.79-1.73,2.17-1.98.25-.38.79-.79,1.61-1.23.82-.44,1.35-.66,1.61-.66.12,0,.57-.09,1.32-.28.76-.19,1.26-.28,1.51-.28.12,0,.57.13,1.32.38.38.13.69.19.94.19l.76,1.89c.12.75.25,2.17.38,4.25.12,2.08.22,4.25.28,6.52.06,2.27.16,4.41.28,6.42.12,2.02.19,3.4.19,4.16s.09,2.21.28,4.35c.19,2.14.41,4.47.66,6.99.25,2.52.5,4.91.76,7.18.25,2.27.44,3.91.57,4.91,0,.25.06.76.19,1.51.12.75.22,1.54.28,2.36.06.82.16,1.54.28,2.17.12.63.19,1.01.19,1.13v4.16c0,.25-.16.79-.47,1.61-.32.82-.47,1.35-.47,1.61-.25.13-.69.63-1.32,1.51-.38.5-.69.94-.94,1.32-.25.76-.63,1.51-1.13,2.27,0,1.01-.07,2.86-.19,5.57-.13,2.71-.28,5.57-.47,8.6-.19,3.02-.38,5.86-.57,8.5-.19,2.65-.35,4.53-.47,5.67,0,.25-.16,1.16-.47,2.74-.32,1.57-.6,2.8-.85,3.68,0,.5-.16,1.42-.47,2.74-.32,1.32-.47,2.11-.47,2.36s-.13.76-.38,1.51c-.25.76-.5,1.2-.75,1.32v-20.4l-.76-.75Z"/>
      <path class="cls-1" d="m163.85,158.19c-.13,0-.6-.22-1.42-.66-.82-.44-1.48-.66-1.98-.66-.38.12-.69.25-.94.38-.5.25-.76.57-.76.94h-1.13c0-.25-.32-.69-.94-1.32-.63-.63-1.07-.95-1.32-.95,0-.13-.6-.38-1.79-.75-1.2-.38-1.98-.76-2.36-1.13-.25,0-.69-.19-1.32-.57-.63-.38-1.07-.69-1.32-.94-.25-.13-.73-.41-1.42-.85-.69-.44-1.35-.88-1.98-1.32-.63-.44-1.2-.85-1.7-1.23-.5-.38-.76-.63-.76-.76-.25-.25-.76-.85-1.51-1.79-.75-.94-1.58-1.98-2.46-3.12-.88-1.13-1.67-2.21-2.36-3.21-.69-1.01-1.17-1.7-1.42-2.08-.13-.5-.57-1.7-1.32-3.59-.76-1.89-1.26-3.28-1.51-4.16-.13-.38-.28-.98-.47-1.79-.19-.82-.38-1.64-.57-2.46-.19-.82-.35-1.54-.47-2.17-.13-.63-.19-1.01-.19-1.13v-1.13c0-.63.12-1.2.38-1.7,0-.5.09-1.16.28-1.98.19-.82.28-1.29.28-1.42l.38-.76c.25-.5.5-.75.75-.75.12-.12.5-.41,1.13-.85.63-.44,1.32-.88,2.08-1.32.76-.44,1.42-.85,1.98-1.23.57-.38.97-.63,1.23-.76,0-.25.44-.6,1.32-1.04.88-.44,1.38-.66,1.51-.66.12-.25.25-.44.38-.57l.57-.57c-.5,0-1.42-.31-2.74-.95-1.32-.63-2.24-1.07-2.74-1.32-.38-.63-1.29-1.51-2.74-2.64-1.45-1.13-2.43-1.76-2.93-1.89-.76-.63-1.39-1.26-1.89-1.89-1.01-1.01-1.89-2.01-2.64-3.02-.13-.12-.25-.31-.38-.57-.13-.25-.19-.63-.19-1.13-.38-.38-.98-1.26-1.79-2.64-.82-1.38-1.36-2.2-1.61-2.46-.13-.38-.47-1.2-1.04-2.46-.57-1.26-.85-2.14-.85-2.65-.25-.38-.57-1.38-.94-3.02-.38-1.64-.57-2.71-.57-3.21,0-.38-.03-1.07-.09-2.08-.06-1.01-.09-1.63-.09-1.89.25-1.51.47-2.74.66-3.68.19-.94.38-1.89.57-2.83.19-.94.35-1.67.47-2.17,0-1.13.12-2.58.38-4.35.25-1.76.38-2.77.38-3.02s.38-1.01,1.13-2.27c.76-1.26,1.32-2.2,1.7-2.83.5-.5,1.23-1.51,2.17-3.02.95-1.51,1.67-2.58,2.17-3.21l1.32-1.32c.63-.63,1.01-1.07,1.13-1.32.38-.38,1.1-.91,2.17-1.61,1.07-.69,2.17-1.42,3.31-2.17,1.13-.76,2.14-1.48,3.02-2.17.88-.69,1.45-1.16,1.7-1.42.25-.12,1.2-.6,2.83-1.42l3.97-1.98h.95c.25,0,.47-.03.66-.09.19-.06.41-.09.66-.09.5,0,1.48-.25,2.93-.75,1.45-.5,2.3-.76,2.55-.76.38-.12,1.13-.16,2.27-.09,1.13.07,1.76.03,1.89-.09h1.98c.95,0,1.92.03,2.93.09,1.01.07,1.95.09,2.83.09h1.7c0-.63.31-1.79.94-3.5.63-1.7,1.07-2.8,1.32-3.31.12-.12.28-.57.47-1.32.19-.76.41-1.26.66-1.51,0-.25.31-.69.94-1.32.63-.63,1.07-1.01,1.32-1.13,0-.25.41-.6,1.23-1.04.82-.44,1.35-.66,1.61-.66.25-.12.63-.34,1.13-.66.5-.31,1.01-.6,1.51-.85.5-.38,1.01-.76,1.51-1.13h2.64c.12,0,.35.06.66.19.31.13.6.25.85.38.38.25.69.44.94.57l.38.38.57.57c.63.63.82,1.39.57,2.27,0,.5.09,1.51.28,3.02.19,1.51.38,3.15.57,4.91.19,1.76.31,3.46.38,5.1.06,1.64.03,2.77-.09,3.4,0,.38.03,1.07.09,2.08.06,1.01.12,2.08.19,3.21.06,1.13.12,2.24.19,3.31.06,1.07.09,1.79.09,2.17.12.88.16,2.24.09,4.06-.06,1.83-.09,2.8-.09,2.93,0,1.01-.13,2.74-.38,5.2-.25,2.46-.54,5.04-.85,7.75-.32,2.71-.66,5.26-1.04,7.65-.38,2.39-.69,4.03-.94,4.91,0,.5.16,1.23.47,2.17.31.94.47,1.67.47,2.17-.13.38-.13,1.2,0,2.46.12,1.26.31,2.64.57,4.16.25,1.51.47,2.9.66,4.16.19,1.26.34,2.08.47,2.46.12.25.22.73.28,1.42.06.69.12,1.45.19,2.27.06.82.12,1.61.19,2.36.06.76.09,1.32.09,1.7.12.5.28,1.36.47,2.55.19,1.2.34,2.49.47,3.87.12,1.39.25,2.68.38,3.87.12,1.2.19,1.98.19,2.36-.25.63-.32,1.58-.19,2.83.12,1.26.19,2.01.19,2.27s-.16,1.38-.47,3.4c-.32,2.01-.47,3.52-.47,4.53,0,.75-.28,2.14-.85,4.16-.57,2.01-.85,3.4-.85,4.16,0,.12-.16.57-.47,1.32-.32.76-.6,1.13-.85,1.13-.5.5-1.07,1.29-1.7,2.36-.63,1.07-1.01,1.73-1.13,1.98-.25.12-.63.47-1.13,1.04-.5.57-.88.85-1.13.85-.13.25-.47.63-1.04,1.13-.57.5-1.2,1.01-1.89,1.51-.69.5-1.39.97-2.08,1.42-.69.44-1.1.72-1.23.85,0,.12-.41.28-1.23.47-.82.19-1.48.41-1.98.66-.13.25-.88.69-2.27,1.32-1.39.63-2.33,1.01-2.83,1.13-.25.38-.57,1.1-.95,2.17-.38,1.07-.75,2.17-1.13,3.31-.38,1.13-.69,2.2-.95,3.21-.25,1.01-.38,1.7-.38,2.08,0,.25-.13.76-.38,1.51-.25.76-.5,1.2-.75,1.32h-.76c0-.13-.03-.47-.09-1.04-.06-.57-.13-1.2-.19-1.89-.07-.69-.07-1.29,0-1.79.06-.5.22-.88.47-1.13-.13-.63-.16-1.58-.09-2.83.06-1.26.09-2.14.09-2.64Zm-26.64-98.62c0,.5-.13,1.26-.38,2.27-.13.5-.19,1.01-.19,1.51-.13.38-.16,1.26-.09,2.65.06,1.39.09,2.21.09,2.46.25.25.47,1.17.66,2.74.19,1.58.28,2.8.28,3.68.25.25.47.66.66,1.23.19.57.41.85.66.85.25.5.5,1.13.76,1.89.12.5.25.88.38,1.13.12.25.44.73.94,1.42.5.69,1.04,1.45,1.61,2.27.57.82,1.13,1.61,1.7,2.36.57.76,1.04,1.32,1.42,1.7.25,0,.66.28,1.23.85s.85.92.85,1.04c.38,0,1.01.32,1.89.94.88.63,1.57,1.2,2.08,1.7.12,0,.57.28,1.32.85.76.57,1.26.85,1.51.85h2.08c.63,0,1.23.07,1.79.19.57.13.97.25,1.23.38.38.13,1.2.28,2.46.47,1.26.19,2.14.28,2.65.28l.75-.75c.25-.25.5-.79.76-1.61.25-.82.57-1.42.95-1.79.38-.25.66-.57.85-.94.19-.38.35-.76.47-1.13.12-.5.25-.94.38-1.32v-3.97c.12-.88.19-2.36.19-4.44s-.06-4.22-.19-6.42c-.13-2.2-.28-4.31-.47-6.33-.19-2.01-.41-3.4-.66-4.16-.13-.38-.22-1.07-.28-2.08-.07-1.01-.13-2.01-.19-3.02-.06-1.01-.13-2.01-.19-3.02-.07-1.01-.09-1.7-.09-2.08,0-.12-.16-.44-.47-.94-.32-.5-.47-.82-.47-.94-.25,0-.73-.28-1.42-.85-.69-.57-1.23-.85-1.61-.85-.5-.5-1.2-.88-2.08-1.13-.88-.25-1.45-.44-1.7-.57-.88,0-1.45-.19-1.7-.57l-5.1,28.91h-1.32c-.13,0-.19-.28-.19-.85v-1.98c0-.76.03-1.54.09-2.36.06-.82.09-1.48.09-1.98.12-.88.34-2.39.66-4.53.31-2.14.63-4.41.94-6.8.31-2.39.6-4.66.85-6.8.25-2.14.44-3.65.57-4.53l-1.7,1.51-2.27,10.96-1.89,1.13v-2.46c0-.38.03-1.07.09-2.08.06-1.01.12-2.05.19-3.12.06-1.07.12-2.08.19-3.02.06-.94.16-1.61.28-1.98h-.76l-.57-.38c-.25,0-.98.22-2.17.66-1.2.44-1.92.79-2.17,1.04-.13,0-.69.32-1.7.95-.13.38-.5.98-1.13,1.79-.63.82-1.07,1.42-1.32,1.79,0,.25-.19.85-.57,1.79-.38.94-.57,1.48-.57,1.61,0,.25-.16.82-.47,1.7-.32.88-.47,1.64-.47,2.27Zm8.88,50.44c.12.38.41,1.17.85,2.36.44,1.2.88,2.49,1.32,3.87.44,1.39.85,2.71,1.23,3.97.38,1.26.57,2.14.57,2.64,0,.38.16.88.47,1.51.31.63.66,1.29,1.04,1.98.38.69.75,1.35,1.13,1.98.38.63.69,1.07.95,1.32,0,.38.5,1.29,1.51,2.74,1.01,1.45,1.82,2.49,2.46,3.12.25.25.76.63,1.51,1.13.76.5,1.2,1.01,1.32,1.51.25.25.57.5.94.76.5.38,1.07.57,1.7.57.25.25.82.6,1.7,1.04.88.44,1.45.66,1.7.66.25.12.57.19.94.19.38.12.88.19,1.51.19.25.25.69.41,1.32.47.63.06,1.07.09,1.32.09l.76-.38c.63-.25.94-.44.94-.57.25-.25.6-.92,1.04-1.98.44-1.07.66-1.73.66-1.98,0-.63-.06-1.42-.19-2.36-.13-.94-.19-1.54-.19-1.79.5-.5.76-1.51.76-3.02s-.13-2.52-.38-3.02c-.13-.25-.25-.94-.38-2.08-.13-1.13-.22-2.39-.28-3.78-.06-1.38-.09-2.71-.09-3.97s.12-2.2.38-2.83c-.13-.25-.28-.72-.47-1.42-.19-.69-.35-1.45-.47-2.27-.13-.82-.19-1.61-.19-2.36s.12-1.32.38-1.7c0-.25-.07-.53-.19-.85-.13-.31-.25-.6-.38-.85l-.38-1.13c-.13,0-.25-.06-.38-.19l-.38-.38-.57.57c-.25.25-.88.6-1.89,1.04-1.01.44-2.08.88-3.21,1.32-1.13.44-2.17.88-3.12,1.32-.95.44-1.61.73-1.98.85-.25.25-.66.41-1.23.47-.57.06-.85.22-.85.47-.25-.25-.76-.31-1.51-.19-.76.13-1.26.19-1.51.19-.5,0-1.29.09-2.36.28-1.07.19-1.73.28-1.98.28-.38.13-1.35.19-2.93.19h-2.93Z"/>
      <path class="cls-1" d="m214.67,99.06h-2.64c-.38,0-.92.03-1.61.09-.69.07-1.42.13-2.17.19-.76.06-1.48.16-2.17.28-.69.13-1.17.19-1.42.19-.13,0-.57.16-1.32.47-.76.32-1.26.47-1.51.47-.5.5-.94.82-1.32.94-.38.13-.69.25-.94.38-.13,0-.57.16-1.32.47-.76.32-1.26.47-1.51.47h-1.32c-.25,0-.6-.16-1.04-.47-.44-.31-.79-.47-1.04-.47,0-.25-.13-.63-.38-1.13-.25-.5-.38-.88-.38-1.13v-1.89c.12-.5.44-1.23.94-2.17.5-.94.82-1.54.94-1.79.12-.25.47-.66,1.04-1.23.57-.57,1.16-1.16,1.79-1.79l1.89-1.89c.63-.63,1.07-1.07,1.32-1.32.25-.12.57-.25.94-.38.25-.12.47-.25.66-.38.19-.12.41-.19.66-.19.12-.25.57-.47,1.32-.66.76-.19,1.26-.41,1.51-.66.25,0,1.04-.16,2.36-.47,1.32-.31,2.23-.47,2.74-.47.38,0,1.38-.12,3.02-.38,1.64-.25,2.77-.38,3.4-.38.63-.25,1.86-.5,3.68-.76,1.82-.25,2.99-.38,3.5-.38s1.29-.06,2.36-.19c1.07-.12,2.14-.22,3.21-.28,1.07-.06,2.05-.16,2.93-.28.88-.12,1.45-.19,1.7-.19h6.8c.25,0,.69.28,1.32.85.63.57.94.98.94,1.23v.75c-.25.5-.63,1.29-1.13,2.36-.5,1.07-.88,1.73-1.13,1.98-.13.13-.44.47-.94,1.04-.5.57-1.07,1.17-1.7,1.79-.63.63-1.26,1.26-1.89,1.89-.63.63-1.13,1.01-1.51,1.13-.38.25-.69.44-.94.57-.13.13-.32.19-.57.19-.13,0-.25.06-.38.19-.5.25-1.39.63-2.65,1.13-1.26.5-2.08.88-2.46,1.13l-2.27,10.2-.94,1.13v-11.15c-.13,0-.57-.03-1.32-.09-.75-.06-1.26-.09-1.51-.09s-.47.13-.66.38c-.19.25-.41.5-.66.76,0,.13-.09.6-.28,1.42-.19.82-.41,1.7-.66,2.64-.25.94-.47,1.83-.66,2.64-.19.82-.35,1.29-.47,1.42,0,.25-.16.76-.47,1.51-.32.76-.6,1.2-.85,1.32v-10.96h-2.83Z"/>
      <path class="cls-1" d="m233.94,108.5c0-.5.13-1.51.38-3.02.25-1.51.38-2.52.38-3.02.25-.38.6-1.38,1.04-3.02.44-1.64.79-2.71,1.04-3.21.13-.38.35-.88.66-1.51.32-.63.6-1.26.85-1.89.25-.63.54-1.2.85-1.7.32-.5.54-.75.66-.75.25-.25.79-.79,1.61-1.61.82-.82,1.42-1.35,1.79-1.61,0-.12.38-.44,1.13-.94.76-.5,1.32-.82,1.7-.95.25-.25.63-.57,1.13-.94.5-.38.88-.57,1.13-.57h2.83c.63.63.94,1.13.94,1.51,0,.25.06.5.19.76.25.5.38.88.38,1.13s-.13.63-.38,1.13c-.13.25-.19.44-.19.57,0,.25-.09.76-.28,1.51-.19.75-.41,1.54-.66,2.36-.25.82-.47,1.58-.66,2.27-.19.69-.35,1.1-.47,1.23v17.38c0,.25.16,1.01.47,2.27.31,1.26.54,2.21.66,2.83,0,.38.16,1.13.47,2.27.31,1.13.47,1.76.47,1.89.25.25.63,1.07,1.13,2.46.5,1.38.88,2.27,1.13,2.65l4.16,8.31c0,.12.22.57.66,1.32.44.76.79,1.26,1.04,1.51.5.38,1.13,1.13,1.89,2.27s1.26,1.76,1.51,1.89c.25.25.76.79,1.51,1.61.76.82,1.2,1.35,1.32,1.61.25.12.91.57,1.98,1.32,1.07.76,1.86,1.26,2.36,1.51,0,.25.22.47.66.66.44.19.79.41,1.04.66.38,0,.97.16,1.79.47.82.31,1.35.47,1.61.47h5.86l1.32-1.32c.38-.38.72-.73,1.04-1.04.31-.32.6-.6.85-.85.12-.38.25-.69.38-.94.12-.25.38-.57.76-.95,0-.25.12-.79.38-1.61.25-.82.38-1.35.38-1.61.25-.63.47-1.42.66-2.36.19-.94.28-1.54.28-1.79,0-1.26.06-2.52.19-3.78.12-1.01.22-2.05.28-3.12.06-1.07.09-1.92.09-2.55s-.03-1.45-.09-2.46c-.07-1.01-.13-2.05-.19-3.12-.06-1.07-.13-1.98-.19-2.74-.06-.76-.09-1.2-.09-1.32,0-.38-.09-1.48-.28-3.31-.19-1.82-.41-3.18-.66-4.06,0-.38-.09-1.07-.28-2.08-.19-1.01-.41-2.05-.66-3.12-.25-1.07-.47-2.08-.66-3.02-.19-.94-.28-1.61-.28-1.98,0-.12-.09-.57-.28-1.32-.19-.76-.41-1.61-.66-2.55-.25-.94-.5-1.86-.76-2.74-.25-.88-.44-1.51-.57-1.89-.13-.5-.32-1.29-.57-2.36-.25-1.07-.54-2.17-.85-3.31-.32-1.13-.63-2.2-.94-3.21-.32-1.01-.47-1.7-.47-2.08-.25-.88-.79-2.74-1.61-5.57-.82-2.83-1.73-6.11-2.74-9.82-1.01-3.71-2.11-7.71-3.31-12-1.2-4.28-2.3-8.28-3.31-12-1.01-3.71-1.92-6.99-2.74-9.82-.82-2.83-1.35-4.69-1.61-5.57,0-.25-.09-.69-.28-1.32-.19-.63-.28-1.01-.28-1.13v-.66c0-.31.06-.6.19-.85l.38-1.13c0-.25.22-.91.66-1.98.44-1.07.85-1.79,1.23-2.17l5.1-5.1c.25-.25.88-.6,1.89-1.04,1.01-.44,1.7-.66,2.08-.66.25,0,.44-.06.57-.19.25-.25.44-.38.57-.38l.95.57c.25,0,.63.22,1.13.66.5.44.88.79,1.13,1.04,0,.38.12,1.26.38,2.65.25,1.39.38,2.21.38,2.46.12.76.63,2.74,1.51,5.95.88,3.21,1.95,7.02,3.21,11.43,1.26,4.41,2.58,9.13,3.97,14.17,1.38,5.04,2.71,9.76,3.97,14.17,1.26,4.41,2.3,8.22,3.12,11.43.82,3.21,1.35,5.2,1.61,5.95.12.13.28.57.47,1.32.19.76.41,1.58.66,2.46.25.88.47,1.76.66,2.64.19.88.35,1.51.47,1.89,0,.5.12,1.23.38,2.17.25.95.47,1.92.66,2.93.19,1.01.38,1.92.57,2.74.19.82.28,1.29.28,1.42s.06.47.19,1.04c.12.57.22,1.23.28,1.98.06.76.16,1.48.28,2.17.12.69.19,1.23.19,1.61.12.63.28,1.45.47,2.46.19,1.01.35,2.02.47,3.02.12,1.01.22,1.89.28,2.64.06.76.09,1.2.09,1.32v10.2c0,.38-.16,1.42-.47,3.12-.32,1.7-.6,2.99-.85,3.87,0,.25-.09.91-.28,1.98-.19,1.07-.41,1.73-.66,1.98,0,.25-.13.79-.38,1.61-.25.82-.38,1.42-.38,1.79-.25.5-.6,1.38-1.04,2.64-.44,1.26-.79,2.08-1.04,2.46-.25.25-.47.6-.66,1.04-.19.44-.41.66-.66.66-.5.88-1.2,2.11-2.08,3.68-.88,1.57-1.45,2.42-1.7,2.55-.25.25-.69.72-1.32,1.42-.63.69-1.32,1.42-2.08,2.17-.76.76-1.51,1.48-2.27,2.17-.76.69-1.32,1.23-1.7,1.61-.13.25-.76.76-1.89,1.51-1.13.76-1.89,1.2-2.27,1.32-.13.12-.47.35-1.04.66-.57.31-1.2.63-1.89.94-.69.31-1.35.63-1.98.95-.63.31-1.01.53-1.13.66-.13,0-.28.12-.47.38-.19.25-.28.5-.28.76-.13.12-.25.53-.38,1.23-.13.69-.22,1.45-.28,2.27-.06.82-.16,1.54-.28,2.17-.13.63-.19,1.01-.19,1.13,0,.25-.16.63-.47,1.13-.32.5-.47.88-.47,1.13-.25-.25-.47-.63-.66-1.13-.19-.5-.41-.88-.66-1.13,0-.5-.16-1.51-.47-3.02-.32-1.51-.47-2.52-.47-3.02h-1.7v10.2h-1.13c-.25-.38-.47-1.35-.66-2.93-.19-1.58-.41-2.55-.66-2.93,0-.38-.07-.85-.19-1.42-.13-.57-.25-1.17-.38-1.79-.13-.63-.25-1.26-.38-1.89,0-.13-.28-.28-.85-.47s-1.23-.41-1.98-.66c-.76-.25-1.45-.47-2.08-.66-.63-.19-1.07-.28-1.32-.28-.38-.13-.69-.25-.95-.38-.5-.25-.76-.57-.76-.95-.38-.25-.98-.6-1.79-1.04-.82-.44-1.36-.66-1.61-.66l-1.79-1.79c-.82-.82-1.67-1.67-2.55-2.55l-2.46-2.46c-.76-.76-1.2-1.32-1.32-1.7-.25-.25-.88-1.13-1.89-2.65-1.01-1.51-1.64-2.64-1.89-3.4-.25-.25-.57-.79-.94-1.61-.38-.82-.82-1.64-1.32-2.46-.5-.82-.94-1.61-1.32-2.36-.38-.75-.57-1.26-.57-1.51-.12-.13-.34-.6-.66-1.42-.31-.82-.63-1.73-.94-2.74-.31-1.01-.63-1.98-.94-2.93-.31-.94-.54-1.67-.66-2.17-.12-.5-.28-1.23-.47-2.17-.19-.95-.41-1.67-.66-2.17,0-.38-.03-.92-.09-1.61-.06-.69-.16-1.42-.28-2.17-.12-.76-.22-1.42-.28-1.98-.06-.57-.09-.91-.09-1.04v-11.52Z"/>
    </g>
  </g>
</svg>